<?xml version="1.0" encoding="UTF-8"?>
<svg id="Layer_1" data-name="Layer 1" xmlns="http://www.w3.org/2000/svg" viewBox="0 0 969.24 135.96">
  <defs>
    <style>
      .cls-1 {
        fill: #fff;
      }

      .cls-2 {
        fill: red;
      }

      .cls-3 {
        fill: #0090e2;
      }
    </style>
  </defs>
  <g>
    <g>
      <path class="cls-1" d="M84.15,2.39l-39.6,39.6-2.57,2.57L2.39,84.15c-3.19,3.19-3.19,8.37,0,11.56l36.39,36.39c3.19,3.19,8.37,3.19,11.56,0l39.6-39.6,2.57-2.57,39.6-39.6c3.19-3.19,3.19-8.37,0-11.56L95.71,2.39c-3.19-3.19-8.37-3.19-11.56,0Z"/>
      <path class="cls-2" d="M86.72,4.96l-39.6,39.6,42.81,42.81,39.6-39.6c1.77-1.77,1.77-4.65,0-6.42L93.14,4.96c-1.77-1.77-4.65-1.77-6.42,0ZM100.52,44.55c0,2.92-1.19,5.57-3.11,7.48-1.92,1.92-4.56,3.11-7.48,3.11-2.92,0-5.57-1.2-7.48-3.11-1.92-1.92-3.11-4.56-3.11-7.48,0-2.92,1.19-5.56,3.09-7.48,1.92-1.92,4.56-3.11,7.49-3.11s5.56,1.19,7.48,3.11c1.91,1.91,3.11,4.56,3.11,7.48Z"/>
      <path class="cls-3" d="M4.96,86.72c-1.77,1.77-1.77,4.65,0,6.42l36.39,36.39c1.77,1.77,4.65,1.77,6.42,0l39.6-39.6-42.81-42.81L4.96,86.72ZM40.15,89.93c0,2.92-1.19,5.57-3.11,7.48-1.92,1.92-4.56,3.11-7.48,3.11-2.92,0-5.57-1.2-7.48-3.11-1.92-1.92-3.11-4.56-3.11-7.48,0-2.92,1.19-5.56,3.09-7.48,1.92-1.92,4.56-3.11,7.49-3.11,2.92,0,5.56,1.19,7.48,3.11,1.91,1.91,3.11,4.56,3.11,7.48ZM70.13,89.91c0,2.92-1.19,5.57-3.11,7.48-1.92,1.92-4.56,3.11-7.48,3.11-2.92,0-5.57-1.2-7.48-3.11s-3.11-4.56-3.11-7.48c0-2.92,1.19-5.56,3.09-7.48,1.92-1.92,4.56-3.11,7.49-3.11,2.92,0,5.56,1.19,7.48,3.11,1.91,1.91,3.11,4.56,3.11,7.48Z"/>
    </g>
    <g>
      <path class="cls-3" d="M958.1,67.73c0,3.23,2.56,5.58,5.58,5.58s5.55-2.36,5.55-5.58-2.56-5.55-5.55-5.55-5.58,2.36-5.58,5.55M963.69,72.41c-2.55,0-4.52-1.97-4.52-4.68s1.97-4.65,4.52-4.65,4.49,2,4.49,4.65-1.97,4.68-4.49,4.68ZM966.22,66.36c0-1.26-.74-1.83-2.25-1.83h-2.43v6.42h.98v-2.79h1.09l1.69,2.79h1.07l-1.81-2.82c.95-.12,1.66-.62,1.66-1.77ZM962.52,67.35v-2.01h1.32c1.11,0,1.41.35,1.41.96,0,.71-.39,1.05-1.57,1.05h-1.15Z"/>
      <path class="cls-3" d="M174.86,45.2h-31.35v85.23h31.35c23.54,0,42.62-19.08,42.62-42.62s-19.08-42.62-42.62-42.62ZM173.52,107.3h-5.29v-38.98h5.29c10.76,0,19.49,8.73,19.49,19.49s-8.73,19.49-19.49,19.49ZM365.66,130.43v-34.71c0-3.17-2.57-5.73-5.73-5.73s-5.73,2.57-5.73,5.73v34.71h-24.35v-34.71c0-3.17-2.57-5.73-5.73-5.73s-5.73,2.57-5.73,5.73v34.71h-24.35v-62.11h15.05l6.49,6.49c3.98-5.19,10.12-8.26,16.65-8.32.07,0,.14,0,.21,0,6.33,0,12.33,2.82,16.37,7.7,4.5-4.92,10.85-7.7,17.49-7.7,13,0,23.57,10.5,23.67,23.5l.04,40.44h-24.35ZM287.87,99.36c0,18.15-14.72,32.87-32.87,32.87s-32.87-14.72-32.87-32.87,14.72-32.87,32.87-32.87,32.87,14.72,32.87,32.87ZM266.09,99.38c0-2.84-1.08-5.68-3.24-7.84-2.17-2.16-5.01-3.24-7.85-3.24s-5.68,1.08-7.84,3.24c-2.16,2.17-3.25,5.01-3.25,7.85s1.08,5.68,3.25,7.84c2.17,2.16,5.01,3.24,7.85,3.24s5.68-1.08,7.84-3.24c2.16-2.17,3.24-5.01,3.24-7.85ZM398.05,130.43h24.35v-62.11h-24.35v62.11ZM643.51,111.85c0-4.77-1.89-9.12-5.91-12.49-8.01-6.09-20.39-7.1-24.08-8.51-2.38-.91-3.4-2.32-3.4-3.62,0-1.66,1.65-3.13,4.22-3.13,3.96,0,5.2,2.17,6.38,5.56l21.67-2.83c-3.3-11.83-13.08-20.33-28.35-20.33s-27.74,8.42-27.74,20.37c0,4.77,1.89,9.12,5.91,12.49,8.01,6.09,20.39,7.1,24.08,8.51,2.38.91,3.4,2.32,3.4,3.62,0,1.66-1.65,3.13-4.22,3.13-4,0-5.9-2.35-7.29-5.44l-22.94,2.69c3.3,11.83,15.28,20.34,30.54,20.34s27.74-8.42,27.74-20.37ZM566.68,99.36c0,18.15-14.72,32.87-32.87,32.87s-32.87-14.72-32.87-32.87,14.72-32.87,32.87-32.87,32.87,14.72,32.87,32.87ZM544.9,99.38c0-2.84-1.08-5.68-3.24-7.84-2.17-2.16-5.01-3.24-7.85-3.24s-5.68,1.08-7.84,3.24c-2.16,2.17-3.25,5.01-3.25,7.85s1.08,5.68,3.25,7.84c2.17,2.16,5.01,3.24,7.85,3.24s5.68-1.08,7.84-3.24c2.16-2.17,3.24-5.01,3.24-7.85ZM410.23,38.67c-3.26,0-6.52,1.25-9.01,3.74-2.49,2.48-3.74,5.74-3.74,9s1.25,6.52,3.74,9.01c2.48,2.49,5.74,3.74,9,3.74s6.52-1.25,9.01-3.74c2.49-2.48,3.74-5.74,3.74-9s-1.25-6.52-3.74-9.01c-2.48-2.49-5.74-3.74-9-3.74ZM495.11,89.98c-.48-12.84-10.83-23.12-23.68-23.49-.24,0-.47-.01-.71-.01-7.02,0-13.71,3.03-18.35,8.32l-6.49-6.49h-15.05v62.11h24.35v-33.23c0-4.3,3.49-7.79,7.79-7.79s7.79,3.49,7.79,7.79v33.23h24.35v-40.44h0ZM573.35,85.08c7.86-4.54,12.18-12.33,12.18-18.28,0-6.48-5.25-11.73-11.73-11.73s-11.74,5.27-11.74,11.73,5.26,11.74,11.74,11.74c.37,0,.73-.02,1.09-.05-.34,2.06-1.22,3.98-2.55,5.58l1.01,1.01ZM832.04,86.44l-24.37,25.05h24.37v18.94h-53.95v-18.12l24.49-25.05h-24.49v-18.94h53.95v18.12ZM893.42,68.32h-53.95v18.94h24.49l-24.49,25.05v18.12h53.95v-18.94h-24.37l24.37-25.05v-18.12ZM959.82,93.75v36.66h-17.66l-3.29-6.09h-.61c-2.19,2.36-4.69,4.26-7.49,5.72-9.44,4.58-23.27,2.16-28.98-7.49-3.89-6.07-3.64-14.89.73-20.46,2.31-3.04,5.85-5.4,10.59-7.06,4.75-1.66,10.7-2.5,17.84-2.5h5.69c-.07-5.67-5.33-7.93-10.44-7.79-5.18.02-10.61,2.13-15.34,4.99l-7.79-15.71c14.75-10.18,43.12-11.82,53.16,5.42,2.39,4.1,3.59,8.87,3.59,14.31ZM936.68,104.1c-3.33.06-10.18-.48-12.42,1.52-2.65,1.78-2.75,5.78-.37,7.73,3.46,2.84,9.94,1.46,11.75-2.86.89-1.69,1.11-4.21,1.04-6.39ZM745.74,68.32h24.35v62.11h-24.35v-62.11ZM766.92,42.4c2.49,2.49,3.74,5.75,3.74,9.01s-1.25,6.52-3.74,9c-2.49,2.49-5.75,3.74-9.01,3.74s-6.52-1.25-9-3.74c-2.49-2.49-3.74-5.75-3.74-9.01s1.25-6.52,3.74-9c2.49-2.49,5.75-3.74,9.01-3.74s6.52,1.25,9,3.74ZM739.57,76.24c0,17.15-13.9,31.05-31.05,31.05h-11.09v23.14h-24.72V45.18h36.31c16.65,0,30.56,13.9,30.56,31.05ZM715.66,76.24c0-5.04-4.09-9.13-9.13-9.13h-9.11v18.27h9.11c5.04,0,9.13-4.09,9.13-9.13Z"/>
    </g>
  </g>
  <path class="cls-3" d="M64.42,130.37c0,3.23,2.56,5.58,5.58,5.58s5.55-2.36,5.55-5.58-2.56-5.55-5.55-5.55-5.58,2.36-5.58,5.55M70,135.06c-2.55,0-4.52-1.97-4.52-4.68s1.97-4.65,4.52-4.65,4.49,2,4.49,4.65-1.97,4.68-4.49,4.68ZM72.54,129.01c0-1.26-.74-1.83-2.25-1.83h-2.43v6.42h.98v-2.79h1.09l1.69,2.79h1.07l-1.81-2.82c.95-.12,1.66-.62,1.66-1.77ZM68.83,130v-2.01h1.32c1.11,0,1.41.35,1.41.96,0,.71-.39,1.05-1.57,1.05h-1.15Z"/>
</svg>